<?xml version='1.0' encoding='utf-8'?>
<svg xmlns="http://www.w3.org/2000/svg" enable-background="new 0 0 609.15 525.51" version="1.1" viewBox="0 0 609.15 525.51"> <style type="text/css">.st0{fill:#7F7F7F;stroke:#282828;stroke-width:6;stroke-miterlimit:10;} .st1{fill:#BCBBBB;stroke:#282828;stroke-width:6;stroke-miterlimit:10;} .st2{fill:#D3D3D3;} .st3{fill:none;stroke:#282828;stroke-width:7;stroke-miterlimit:10;} .st4{fill:#353535;stroke:#282828;stroke-width:6;stroke-miterlimit:10;} .st5{fill:#D3D3D3;stroke:#282828;stroke-width:6;stroke-miterlimit:10;} .st6{fill:#332F33;stroke:#282828;stroke-width:6;stroke-miterlimit:10;} .st7{fill:#6DBF7D;stroke:#282828;stroke-width:6;stroke-miterlimit:10;} .st8{fill:#80C4D8;stroke:#282828;stroke-width:6;stroke-miterlimit:10;} .st9{fill:#CCA2A6;stroke:#282828;stroke-width:6;stroke-miterlimit:10;} .st10{fill:#DDA4DA;stroke:#282828;stroke-width:6;stroke-miterlimit:10;} .st11{opacity:0.59;fill:#282828;} .st12{opacity:0.57;} .st13{fill:#282828;} .st14{fill:#5E5D5E;stroke:#282828;stroke-width:6;stroke-miterlimit:10;} .st15{fill:#444444;stroke:#262626;stroke-width:6;stroke-miterlimit:10;} .st16{opacity:0.42;fill:#353535;} .st17{opacity:0.68;fill:none;stroke:#F9F9F9;stroke-width:6;stroke-linecap:round;stroke-miterlimit:10;} .st18{opacity:0.39;fill:#333333;}</style> <path class="st0" d="m184.28 179.88h-63c-6.6 0-12-5.4-12-12v-4c0-6.6 5.4-12 12-12h63c6.6 0 12 5.4 12 12v4c0 6.6-5.4 12-12 12z"/> <path class="st0" d="m482.54 179.88h-63c-6.6 0-12-5.4-12-12v-4c0-6.6 5.4-12 12-12h63c6.6 0 12 5.4 12 12v4c0 6.6-5.4 12-12 12z"/> <path class="st1" d="m555.64 519.75c-0.49 0.16-0.98 0.31-1.48 0.44-18 5.18-37.76 1.5-56.85-9.09-31.62-17.55-61.4-54.06-78.33-100.71-4.18-11.51-7.33-22.98-9.51-34.21-13.19-4.55-25.26-11.27-35.71-19.7h-138.38c-10.45 8.42-22.52 15.15-35.71 19.7-1.45 7.48-3.34 15.07-5.67 22.71-1.17 3.82-2.45 7.66-3.84 11.5-27.43 75.6-88.62 124.56-136.66 109.36-3.74-1.19-7.29-2.72-10.64-4.59-39.73-22.09-51.96-90.12-26.66-159.84 7.7-21.22 27.08-72.55 27.08-80.96 0-59.92 52.01-108.49 116.17-108.49 26.5 0 50.92 8.29 70.46 22.24h149.32c19.54-13.94 43.96-22.24 70.46-22.24 64.16 0 116.17 48.57 116.17 108.49 0 0.37 0.04 0.82 0.11 1.35 0 0.04 0.01 0.07 0.01 0.1 1.63 11.38 18.68 56.78 26.35 77.84 0.21 0.57 0.42 1.13 0.61 1.66 27.44 75.61 10.74 149.23-37.3 164.44z"/> <circle class="st2" cx="146.36" cy="262.57" r="81.37"/> <circle class="st2" cx="464.24" cy="262.57" r="81.37"/> <path class="st3" d="m304.95 154.32c-11.58-68.89-1.96-90.54 11.64-95.18 18.34-6.26 41.69 19.24 62.66 13.24 21.11-6.04 24.65-39.69 23.27-72.24"/> <path class="st4" d="m306.48 187.2h-3.48c-2.2 0-4-1.8-4-4v-25c0-2.2 1.8-4 4-4h3.48c2.2 0 4 1.8 4 4v25c0 2.2-1.8 4-4 4z"/> <circle class="st5" cx="224.11" cy="360.32" r="46.04"/> <circle class="st5" cx="385.04" cy="360.32" r="46.04"/> <circle class="st0" cx="385.04" cy="360.32" r="29"/> <circle class="st0" cx="224.11" cy="360.32" r="29"/> <path class="st6" d="m236.7 230.2h-0.96c-3.3 0-6-2.7-6-6v-19.32c0-3.3 2.7-6 6-6h0.96c3.3 0 6 2.7 6 6v19.32c0 3.3-2.7 6-6 6z"/> <path class="st6" d="m373.91 230.2h-0.96c-3.3 0-6-2.7-6-6v-19.32c0-3.3 2.7-6 6-6h0.96c3.3 0 6 2.7 6 6v19.32c0 3.3-2.7 6-6 6z"/> <circle class="st7" cx="464.04" cy="226.89" r="14.55"/> <circle class="st8" cx="464.04" cy="297.8" r="14.55"/> <circle class="st9" cx="499.49" cy="262.34" r="14.55"/> <circle class="st10" cx="428.58" cy="262.34" r="14.55"/> <path class="st11" d="m509.09 247.8s12.46 1.55 12.93 14.55-14.99 16-14.99 16 11.08-9.1 2.06-30.55z"/> <path class="st11" d="m421.81 329.41s18.73 3.29 19.44 30.96-22.54 34.05-22.54 34.05 16.66-19.35 3.1-65.01z"/> <path class="st11" d="m280.89 354.09h-14.01c-0.65-7.18-2.16-15.38-4.92-24.68 0 0 15.81 2.78 18.93 24.68z"/> <path class="st11" d="m473.09 282.8s12.46 1.55 12.93 14.55-14.99 16-14.99 16 11.08-9.1 2.06-30.55z"/> <path class="st11" d="m438.09 247.8s12.46 1.55 12.93 14.55-14.99 16-14.99 16 11.08-9.1 2.06-30.55z"/> <path class="st11" d="m472.09 211.8s12.46 1.55 12.93 14.55-14.99 16-14.99 16 11.08-9.1 2.06-30.55z"/> <g class="st12"> <path class="st13" d="m143.29 234 2.15 2.55 3.65 4.32c2.27 2.69 7.96 2.69 10.24 0l3.65-4.32 2.15-2.55c1.96-1.79 3.18-4.27 3.18-7.01v-5.74c0-5.41-4.76-9.84-10.58-9.84h-7.05c-5.82 0-10.58 4.43-10.58 9.84v5.74c0.01 2.74 1.23 5.22 3.19 7.01z"/> <path class="st13" d="m165.14 291.14-2.15-2.55-3.65-4.32c-2.27-2.69-7.96-2.69-10.24 0l-3.65 4.32-2.15 2.55c-1.96 1.79-3.18 4.27-3.18 7.01v5.74c0 5.41 4.76 9.84 10.58 9.84h7.05c5.82 0 10.58-4.43 10.58-9.84v-5.74c-0.01-2.74-1.24-5.22-3.19-7.01z"/> <path class="st13" d="m184.93 252.41-2.74 2-4.65 3.4c-2.89 2.12-2.89 7.41 0 9.52l4.65 3.4 2.74 2c1.92 1.82 4.59 2.96 7.54 2.96h6.17c5.82 0 10.58-4.43 10.58-9.84v-6.56c0-5.41-4.76-9.84-10.58-9.84h-6.17c-2.95 0-5.62 1.14-7.54 2.96z"/> <path class="st13" d="m123.5 272.73 2.74-2 4.65-3.4c2.89-2.12 2.89-7.41 0-9.52l-4.65-3.4-2.74-2c-1.92-1.82-4.59-2.96-7.54-2.96h-6.17c-5.82 0-10.58 4.43-10.58 9.84v6.56c0 5.41 4.76 9.84 10.58 9.84h6.17c2.95 0 5.62-1.14 7.54-2.96z"/> </g> <path class="st14" d="m136.43 233.77 2.15 2.55 3.65 4.32c2.27 2.69 7.96 2.69 10.24 0l3.65-4.32 2.15-2.55c1.96-1.79 3.18-4.27 3.18-7.01v-5.74c0-5.41-4.76-9.84-10.58-9.84h-7.05c-5.82 0-10.58 4.43-10.58 9.84v5.74c0.01 2.74 1.24 5.23 3.19 7.01z"/> <path class="st14" d="m158.28 290.91-2.15-2.55-3.65-4.32c-2.27-2.69-7.96-2.69-10.24 0l-3.65 4.32-2.15 2.55c-1.96 1.79-3.18 4.27-3.18 7.01v5.74c0 5.41 4.76 9.84 10.58 9.84h7.05c5.82 0 10.58-4.43 10.58-9.84v-5.74c-0.01-2.73-1.23-5.22-3.19-7.01z"/> <path class="st14" d="m178.07 252.18-2.74 2-4.65 3.4c-2.89 2.12-2.89 7.41 0 9.52l4.65 3.4 2.74 2c1.92 1.82 4.59 2.96 7.54 2.96h6.17c5.82 0 10.58-4.43 10.58-9.84v-6.56c0-5.41-4.76-9.84-10.58-9.84h-6.17c-2.95 0-5.62 1.14-7.54 2.96z"/> <path class="st14" d="m116.64 272.5 2.74-2 4.65-3.4c2.89-2.12 2.89-7.41 0-9.52l-4.65-3.4-2.74-2c-1.92-1.82-4.59-2.96-7.54-2.96h-6.17c-5.82 0-10.58 4.43-10.58 9.84v6.56c0 5.41 4.76 9.84 10.58 9.84h6.17c2.95 0 5.62-1.13 7.54-2.96z"/> <path class="st15" d="m343.16 260.44h-77.16c-6.6 0-12-5.4-12-12v-36.47c0-6.6 5.4-12 12-12h77.16c6.6 0 12 5.4 12 12v36.47c0 6.6-5.4 12-12 12z"/> <circle class="st15" cx="304.57" cy="331.32" r="13.12"/> <path class="st16" d="m555.64 519.75c-0.49 0.16-0.98 0.31-1.48 0.44-18 5.18-37.76 1.5-56.85-9.09 89.78-13.65 100.86-94.19 95.02-157.44 0.21 0.57 0.42 1.13 0.61 1.66 27.44 75.6 10.74 149.22-37.3 164.43z"/> <path class="st17" d="m54.44 289.33s-65.95 135.87-23.43 198.35"/> <path class="st18" d="m194 398.89c-1.17 3.82-2.45 7.66-3.84 11.5-27.43 75.6-88.62 124.56-136.66 109.36-3.74-1.19-7.29-2.72-10.64-4.59 98.33-13.02 148.3-118.02 148.3-118.02l2.84 1.75z"/> </svg>